# xmcd CD database file
#
# Track frame offsets:
#	150
#	3492
#	23835
#	42227
#	60962
#	78845
#	100172
#	121877
#	139150
#	157415
#	178867
#	201797
#
# Disc length: 2724 seconds
#
# Revision: 0
# Processed by: cddbd v1.5.1PL0 Copyright (c) Steve Scherf et al.
# Submitted via: CDex 1.51
#
DISCID=990aa20c
DTITLE=西村知美 - SNOWMANの贈り物
DYEAR=1989
DGENRE=JPop
TTITLE0=プロローグ
TTITLE1=シンデレラの卵
TTITLE2=わすれないでBOY
TTITLE3=ジャクソン・5で口づけを
TTITLE4=雨音のレクイエム
TTITLE5=LOVE 〜ラブソングを作ろう〜
TTITLE6=きゃきゃきゃのきゃ (NEW REMIX)
TTITLE7=あなたらしさが欲しい
TTITLE8=Blueberry Jam
TTITLE9=偶然ね
TTITLE10=MR.SNOWMANの招待状
TTITLE11=ボーナストラック
EXTD=YEAR: 1989
EXTT0=
EXTT1=
EXTT2=
EXTT3=
EXTT4=
EXTT5=
EXTT6=
EXTT7=
EXTT8=
EXTT9=
EXTT10=
EXTT11=
PLAYORDER=
